<svg enable-background="new 0 0 140 32" height="32" viewBox="0 0 140 32" width="140" xmlns="http://www.w3.org/2000/svg"><g fill="#fff"><path d="m9.577 7.14c-.648.533-.972 1.238-.972 2.116s.396 1.575 1.187 2.094c.792.518 2.619 1.13 5.483 1.835 2.864.706 5.088 1.764 6.671 3.173 1.583 1.41 2.375 3.469 2.375 6.174 0 2.707-1.015 4.901-3.043 6.585-2.029 1.684-4.7 2.525-8.009 2.525-4.778 0-9.082-1.771-12.91-5.311l4.015-4.922c3.253 2.85 6.261 4.273 9.024 4.273 1.237 0 2.209-.265 2.915-.798.705-.532 1.057-1.253 1.057-2.159s-.374-1.626-1.122-2.159c-.749-.531-2.231-1.071-4.447-1.619-3.512-.834-6.081-1.921-7.707-3.259s-2.439-3.439-2.439-6.303 1.029-5.073 3.087-6.627c2.058-1.555 4.626-2.332 7.707-2.332 2.014 0 4.029.345 6.044 1.036 2.014.691 3.771 1.67 5.268 2.936l-3.411 4.922c-2.62-1.986-5.326-2.979-8.117-2.979-1.123.001-2.009.267-2.656.799z"/><path d="m51.176 1.117h6.736v30.18h-6.736l-14.378-18.911v18.911h-6.735v-30.18h6.304l14.809 19.43z"/><path d="m104.038 18.475 5.354-17.357h7.037l5.312 17.357 6.001-17.357h7.297l-10.535 30.18h-5.009l-6.604-20.983-6.563 20.983h-5.009l-10.536-30.181h7.296z"/><g stroke="#fff" stroke-miterlimit="10"><path d="m82.297 17.837c-1.738 1.698-3.881 2.548-6.423 2.548-2.544 0-4.687-.85-6.425-2.548-1.739-1.698-2.609-3.811-2.609-6.338s.87-4.64 2.609-6.338c1.739-1.699 3.881-2.548 6.425-2.548 2.542 0 4.685.849 6.423 2.548 1.739 1.698 2.609 3.811 2.609 6.338s-.87 4.64-2.609 6.338zm-1.304-6.326c0-1.534-.492-2.843-1.477-3.926s-2.195-1.625-3.632-1.625c-1.436 0-2.646.542-3.629 1.625-.985 1.083-1.478 2.392-1.478 3.926s.492 2.839 1.478 3.914c.983 1.075 2.193 1.612 3.629 1.612 1.437 0 2.646-.538 3.632-1.612.985-1.075 1.477-2.38 1.477-3.914z" stroke-width="2"/><path d="m85.055 28.214v1.501h-17.205v-1.501z"/></g></g></svg>